Coordinates
version=1
nRows=20
nColumns=24
inDegrees=no

Units are S.I. units (second, meters, Newtons, ...)
If the header above contains a line with 'inDegrees', this indicates whether rotational values are in degrees (yes) or radians (no).

endheader
time	pelvis_tilt	pelvis_list	pelvis_rotation	pelvis_tx	pelvis_ty	pelvis_tz	hip_flexion_r	hip_adduction_r	hip_rotation_r	knee_angle_r	ankle_angle_r	subtalar_angle_r	mtp_angle_r	hip_flexion_l	hip_adduction_l	hip_rotation_l	knee_angle_l	ankle_angle_l	subtalar_angle_l	mtp_angle_l	lumbar_extension	lumbar_bending	lumbar_rotation
11.505	0.0706381	-0.0580888	-1.62022	-2.21333	0.957025	-1.44776	0.430008	-0.133757	-0.223743	-0.20837	0.195432	0.00741476	0	-0.34195	-0.031854	-0.221186	-0.287998	0.1684	0.2007	0	0	0	0
11.51	0.0657018	-0.0589237	-1.61796	-2.21533	0.955119	-1.43771	0.431149	-0.130558	-0.222533	-0.226705	0.189866	-0.00181723	0	-0.342185	-0.0405385	-0.213154	-0.309813	0.163751	0.189451	0	0	0	0
11.515	0.0600496	-0.0599887	-1.61627	-2.21741	0.953312	-1.42764	0.43171	-0.126019	-0.222549	-0.245734	0.17156	-0.0162279	0	-0.342088	-0.0497466	-0.205517	-0.332528	0.156898	0.178154	0	0	0	0
11.52	0.0538625	-0.0608843	-1.61493	-2.21955	0.951614	-1.41759	0.432662	-0.12032	-0.2251	-0.265655	0.13682	-0.0390531	0	-0.341101	-0.0591785	-0.197223	-0.356144	0.148312	0.165229	0	0	0	0
11.525	0.0478239	-0.0606755	-1.61423	-2.2217	0.950008	-1.4076	0.435974	-0.114583	-0.228469	-0.288257	0.102929	-0.0614721	0	-0.337901	-0.0678077	-0.187526	-0.380988	0.136569	0.149017	0	0	0	0
11.53	0.0413928	-0.0604306	-1.61537	-2.22392	0.948545	-1.39777	0.441269	-0.108546	-0.229977	-0.315555	0.0865428	-0.0744684	0	-0.333596	-0.0760649	-0.179763	-0.407389	0.122022	0.133259	0	0	0	0
11.535	0.0347205	-0.0589685	-1.61818	-2.22632	0.947181	-1.38813	0.449299	-0.101807	-0.226181	-0.345927	0.0839405	-0.0820152	0	-0.326505	-0.0837654	-0.172584	-0.436032	0.103651	0.114021	0	0	0	0
11.54	0.0272703	-0.0569942	-1.62185	-2.22891	0.945996	-1.37872	0.458534	-0.0938074	-0.219799	-0.377077	0.0848226	-0.0879031	0	-0.317066	-0.0919072	-0.165939	-0.467228	0.0793834	0.091798	0	0	0	0
11.545	0.0191173	-0.0557318	-1.62682	-2.23162	0.945038	-1.3694	0.467026	-0.0844628	-0.213177	-0.407671	0.085195	-0.0943052	0	-0.307067	-0.100212	-0.161095	-0.500346	0.0503213	0.0676759	0	0	0	0
11.55	0.00982134	-0.0552903	-1.63287	-2.23438	0.944287	-1.35999	0.47357	-0.0736057	-0.207561	-0.436865	0.0857551	-0.100116	0	-0.296875	-0.109558	-0.159209	-0.535007	0.0197467	0.0442283	0	0	0	0
11.555	-5.4708e-05	-0.0553701	-1.63927	-2.23714	0.943656	-1.35046	0.477899	-0.0618465	-0.202516	-0.464103	0.0882711	-0.104439	0	-0.286247	-0.119481	-0.158811	-0.570774	-0.0100072	0.0214189	0	0	0	0
11.56	-0.00962645	-0.0565148	-1.64538	-2.23987	0.943183	-1.34101	0.479451	-0.0500164	-0.197282	-0.488852	0.0939034	-0.10771	0	-0.275312	-0.128816	-0.156958	-0.60776	-0.040669	-0.00364163	0	0	0	0
11.565	-0.019348	-0.0582352	-1.65118	-2.24254	0.942835	-1.3316	0.478347	-0.0377672	-0.192209	-0.510436	0.103627	-0.106852	0	-0.263684	-0.138074	-0.154224	-0.646054	-0.0732973	-0.0308774	0	0	0	0
11.57	-0.0285533	-0.0586721	-1.65637	-2.2451	0.942482	-1.32221	0.476718	-0.026034	-0.18814	-0.528753	0.115782	-0.104062	0	-0.248962	-0.146773	-0.150344	-0.686134	-0.106756	-0.06012	0	0	0	0
11.575	-0.0370269	-0.0579479	-1.6609	-2.24747	0.942087	-1.31295	0.474692	-0.0150939	-0.185468	-0.544042	0.129431	-0.102133	0	-0.230944	-0.15458	-0.145246	-0.728171	-0.138327	-0.0888726	0	0	0	0
11.58	-0.0448148	-0.0565491	-1.66399	-2.24969	0.941673	-1.30381	0.47192	-0.00519689	-0.184569	-0.556979	0.145154	-0.101471	0	-0.209945	-0.161844	-0.138514	-0.771889	-0.167173	-0.115767	0	0	0	0
11.585	-0.0522908	-0.0553874	-1.66609	-2.25177	0.941356	-1.29471	0.467694	0.00401818	-0.184724	-0.568192	0.162196	-0.101038	0	-0.187574	-0.168899	-0.131528	-0.81604	-0.191959	-0.139833	0	0	0	0
11.59	-0.0598051	-0.0541407	-1.66719	-2.25368	0.941142	-1.28562	0.462369	0.0129282	-0.185798	-0.577778	0.179558	-0.100171	0	-0.163845	-0.176139	-0.124614	-0.859791	-0.211536	-0.161188	0	0	0	0
11.595	-0.0676802	-0.0529114	-1.6674	-2.25544	0.941053	-1.27651	0.455896	0.021891	-0.187933	-0.58575	0.19683	-0.0985025	0	-0.1394	-0.183935	-0.118251	-0.902316	-0.224562	-0.179644	0	0	0	0
11.6	-0.0759437	-0.051703	-1.6668	-2.25707	0.941064	-1.26747	0.448186	0.0310932	-0.190823	-0.591475	0.213939	-0.096888	0	-0.114205	-0.192057	-0.111929	-0.943818	-0.229254	-0.19387	0	0	0	0
